<?xml version="1.0" encoding="UTF-8"?>
<!-- Generator: Adobe Illustrator 15.0.2, SVG Export Plug-In . SVG Version: 6.00 Build 0)  -->
<!DOCTYPE svg PUBLIC "-//W3C//DTD SVG 1.1//EN" "http://www.w3.org/Graphics/SVG/1.1/DTD/svg11.dtd">
<svg xmlns="http://www.w3.org/2000/svg" xmlns:xlink="http://www.w3.org/1999/xlink" version="1.1" id="Layer_1" x="0px" y="0px" width="511.998px" height="512.002px" viewBox="0 0 511.998 512.002" enable-background="new 0 0 511.998 512.002" xml:space="preserve">
<g>
	<path d="M468.622,43.381c-56.02-56.02-145.747-57.787-203.896-5.289l-0.138-0.141l-74.908,74.902   c-13.583,13.583-23.855,29.198-31.06,45.812c-14.369,6.237-28.003,14.71-40.198,25.729l-0.142-0.142l-74.902,74.898   c-57.838,57.845-57.838,151.621,0,209.467c57.838,57.845,151.618,57.845,209.467,0l74.905-74.905l-0.138-0.146   c11.011-12.199,19.486-25.832,25.717-40.197c16.618-7.201,32.229-17.48,45.812-31.057l74.905-74.912l-0.138-0.138   C526.402,189.125,524.635,99.397,468.622,43.381z M202.299,415.388l-0.011,0.015c-29.188,29.187-76.51,29.187-105.689,0   c-29.191-29.194-29.191-76.514,0-105.693l0.007-0.008l54.646-54.65c6.419,24.638,19.133,47.964,38.428,67.263   c19.302,19.306,42.632,32.013,67.259,38.438L202.299,415.388z M242.896,269.098c-13.322-13.322-20.494-30.426-21.653-47.859   c17.434,1.155,34.533,8.331,47.866,21.653c13.315,13.322,20.501,30.43,21.646,47.866   C273.325,289.584,256.218,282.427,242.896,269.098z M420.006,197.688l-4.593,4.589l-0.015,0.008l0,0l-54.665,54.665   c-6.418-24.635-19.124-47.964-38.423-67.267s-42.64-32.001-67.271-38.427l54.665-54.665c0,0,0,0,0.008-0.008l0.007-0.007   l4.593-4.589l0.218,0.206c29.368-24.695,73.239-23.247,100.883,4.383c27.637,27.633,29.086,71.526,4.383,100.887L420.006,197.688z" fill="#000000"/>
</g>
</svg>
