<?xml version="1.0" encoding="UTF-8"?>
<!-- Generator: Adobe Illustrator 15.0.2, SVG Export Plug-In . SVG Version: 6.00 Build 0)  -->
<!DOCTYPE svg PUBLIC "-//W3C//DTD SVG 1.1//EN" "http://www.w3.org/Graphics/SVG/1.1/DTD/svg11.dtd">
<svg xmlns="http://www.w3.org/2000/svg" xmlns:xlink="http://www.w3.org/1999/xlink" version="1.1" id="Layer_1" x="0px" y="0px" width="512px" height="512px" viewBox="0 0 512 512" enable-background="new 0 0 512 512" xml:space="preserve">
<g id="White_1_">
	<path d="M483.736,0H28.26C12.649,0,0,12.649,0,28.26v455.49C0,499.348,12.649,512,28.26,512h245.212V313.729H206.75v-77.271h66.723   v-56.989c0-66.132,40.389-102.136,99.389-102.136c28.257,0,52.541,2.098,59.625,3.042v69.114l-40.917,0.021   c-32.09,0-38.292,15.246-38.292,37.618v49.336h76.515l-9.966,77.271h-66.549V512H483.75c15.598,0,28.25-12.652,28.25-28.264V28.26   C512,12.649,499.348,0,483.736,0z" fill="#000000"/>
</g>
</svg>
